<?xml version="1.0" standalone="no"?>
<!DOCTYPE svg PUBLIC "-//W3C//DTD SVG 20010904//EN"
 "http://www.w3.org/TR/2001/REC-SVG-20010904/DTD/svg10.dtd">
<svg version="1.0" xmlns="http://www.w3.org/2000/svg"
 width="500.000000pt" height="500.000000pt" viewBox="0 0 500.000000 500.000000"
 preserveAspectRatio="xMidYMid meet">

<g transform="translate(0.000000,500.000000) scale(0.100000,-0.100000)"
fill="#000000" stroke="none">
<path d="M1786 4285 c2 -38 7 -89 10 -111 l5 -42 -154 -7 c-153 -7 -209 -1
-244 28 -10 7 -13 4 -13 -11 0 -19 33 -53 75 -77 17 -10 17 -13 -2 -56 -18
-40 -74 -96 -165 -166 l-27 -20 42 -6 c45 -6 181 -46 175 -51 -1 -2 -43 5 -93
15 -121 25 -191 25 -205 0 -5 -11 -13 -59 -16 -108 l-7 -88 -67 -62 c-40 -38
-79 -85 -96 -118 -28 -54 -28 -57 -10 -70 16 -12 18 -23 13 -75 -4 -34 -18
-88 -31 -121 -27 -67 -24 -73 46 -94 37 -10 43 -16 42 -39 0 -14 -1 -55 -2
-91 l-2 -65 -36 0 -37 0 7 -52 c9 -64 13 -70 37 -63 16 5 19 1 19 -22 0 -16
-5 -34 -11 -40 -20 -20 -6 -57 28 -73 27 -12 33 -21 33 -47 0 -34 38 -73 71
-73 11 0 19 -4 19 -9 0 -23 -14 -41 -32 -41 -14 0 -18 5 -14 15 4 12 -5 15
-49 15 -42 0 -60 -5 -80 -23 -26 -22 -27 -28 -32 -148 -7 -151 -1 -169 58
-169 26 0 42 5 45 15 7 16 74 22 74 6 0 -14 -79 -188 -123 -269 -39 -73 -37
-81 11 -39 31 29 27 10 -13 -57 -54 -89 -160 -221 -213 -262 -69 -56 -71 -58
-25 -35 23 12 45 21 48 21 4 0 -7 -25 -23 -55 -17 -30 -29 -55 -27 -55 2 0 42
47 90 105 47 58 88 105 90 105 5 0 -59 -244 -85 -320 -29 -88 -144 -321 -224
-454 -36 -61 -66 -111 -66 -112 0 -2 15 3 34 11 42 18 153 43 231 53 l60 7 37
70 38 70 -7 -72 -6 -73 50 0 51 0 5 -38 c4 -20 8 -62 11 -92 2 -30 5 -62 7
-70 1 -8 1 -33 0 -55 -1 -34 -3 -37 -13 -21 -10 18 -11 18 -24 -5 -7 -13 -13
-18 -14 -11 0 17 -20 15 -20 -3 0 -19 -14 -19 -30 0 -9 11 -16 13 -23 6 -7 -7
-23 3 -49 31 -36 39 -38 40 -38 17 0 -24 -1 -24 -18 -4 -9 11 -28 29 -41 40
-26 21 -26 21 -5 -30 4 -9 -13 -4 -48 15 -63 35 -78 38 -52 9 l19 -21 -38 16
c-45 18 -83 44 -152 101 -87 72 -88 78 28 -135 16 -30 41 -75 55 -100 l26 -45
-24 20 -23 20 6 -23 c4 -19 3 -21 -8 -12 -11 9 -16 6 -21 -15 -6 -24 -8 -25
-24 -10 -9 8 -19 12 -22 9 -4 -3 -21 10 -40 28 -18 19 -26 25 -17 14 17 -21
39 -61 39 -69 0 -14 -32 3 -50 26 -12 15 -31 32 -43 39 -18 9 -18 7 6 -21 15
-18 27 -38 27 -44 0 -6 -7 -2 -15 9 -15 19 -15 19 -8 -1 6 -18 5 -18 -10 -6
-14 11 -17 11 -17 0 -1 -10 -5 -9 -14 4 -14 18 -15 17 -21 -3 -6 -20 -8 -20
-24 -6 -22 20 -31 20 -31 1 0 -19 -10 -19 -40 2 -22 16 -21 13 7 -23 l31 -40
-116 -29 -117 -30 130 -6 c72 -3 132 -7 135 -9 3 -1 -76 -17 -175 -35 l-180
-33 145 -1 c331 -2 793 -15 770 -21 -14 -4 -83 -15 -155 -26 l-130 -19 370 -5
370 -5 -140 -25 -140 -25 225 -3 c230 -4 690 15 690 29 0 4 -50 10 -112 14
-61 4 -105 11 -97 15 8 4 117 13 244 19 126 7 231 14 233 16 2 1 -51 6 -118
10 -247 15 -227 21 90 29 347 8 455 17 310 27 -47 3 75 6 270 8 l355 3 -90 18
c-123 25 -199 55 -230 91 -14 17 -25 34 -25 38 0 11 -51 47 -79 56 -23 7 -23
7 -7 -16 9 -13 16 -27 16 -32 0 -17 -43 6 -72 39 -36 40 -51 44 -38 8 16 -42
11 -47 -16 -15 -30 36 -44 39 -44 9 0 -17 -5 -14 -28 18 -40 54 -64 73 -70 55
-3 -9 -16 0 -41 27 -20 22 -47 44 -61 48 -24 7 -24 6 6 -22 31 -29 51 -70 40
-81 -11 -11 -56 17 -66 39 -5 13 -9 16 -9 8 -2 -28 -28 13 -55 85 -15 39 -24
57 -22 40 3 -16 8 -52 12 -80 l6 -50 -30 28 c-27 26 -31 27 -34 10 -3 -15 -7
-13 -21 12 -12 23 -16 26 -17 11 0 -18 -1 -18 -18 -3 -24 22 -32 21 -32 0 -1
-10 -11 2 -24 27 -13 25 -34 54 -47 65 l-22 20 22 -30 c12 -17 24 -47 28 -68
5 -36 5 -37 -27 -37 -20 0 -38 8 -48 21 -11 13 -34 22 -62 26 -25 3 -48 12
-53 19 -4 7 -25 15 -46 19 -21 3 -49 17 -61 30 l-22 23 39 6 c21 4 99 10 173
14 111 6 144 12 183 31 27 13 51 29 54 36 2 7 -30 155 -71 327 -42 173 -76
320 -76 326 0 9 8 8 30 -3 16 -8 31 -15 33 -15 2 0 -29 109 -69 242 -41 134
-74 246 -74 249 0 3 14 4 30 1 37 -5 60 12 60 47 0 30 25 71 44 71 8 0 11 -10
9 -27 -4 -35 0 -42 62 -83 291 -196 866 -683 1439 -1219 110 -102 215 -199
235 -216 l36 -30 -34 60 c-83 148 -287 402 -441 549 -167 158 -599 523 -1104
930 -94 75 -113 87 -137 82 -39 -8 -45 9 -15 45 55 65 8 128 -66 88 -26 -14
-38 -1 -15 15 22 17 22 28 -3 77 -12 22 -20 45 -19 52 1 7 -1 19 -4 27 -3 8
-11 41 -16 74 -12 63 -24 86 -48 86 -11 0 -13 3 -5 12 10 13 15 179 6 209 -6
22 -58 43 -88 35 -23 -6 -24 -5 -15 32 38 163 -27 426 -155 626 -35 54 -36 58
-17 63 19 5 20 7 5 35 -23 45 -13 58 48 58 29 0 71 -5 93 -10 22 -5 40 -8 41
-7 1 1 -11 43 -26 93 l-28 91 18 89 c20 97 17 138 -16 214 l-20 44 22 41 c28
49 54 146 53 195 0 28 -2 31 -9 15 -4 -11 -14 -41 -20 -68 -15 -56 -66 -140
-82 -135 -7 3 -22 53 -34 112 -29 136 -35 149 -28 61z m14 -270 c0 -25 -4 -45
-10 -45 -5 0 -10 20 -10 45 0 25 5 45 10 45 6 0 10 -20 10 -45z m70 6 c0 -5
-5 -22 -11 -38 -9 -24 -7 -30 11 -45 l22 -18 -23 0 c-40 0 -48 11 -42 63 5 37
9 47 24 47 11 0 19 -4 19 -9z m11 -161 c30 -25 14 -25 -31 0 -28 16 -31 19
-14 20 12 0 32 -9 45 -20z m-32 -82 c-1 -50 -3 -57 -9 -33 -11 45 -11 95 0 95
6 0 9 -27 9 -62z m-52 5 c-3 -10 -5 -4 -5 12 0 17 2 24 5 18 2 -7 2 -21 0 -30z
m67 -164 c3 -13 -10 7 -29 46 -19 38 -35 76 -35 85 0 17 54 -94 64 -131z
m-557 -5 c-3 -3 -12 -4 -19 -1 -8 3 -5 6 6 6 11 1 17 -2 13 -5z m126 -1 c-7
-2 -21 -2 -30 0 -10 3 -4 5 12 5 17 0 24 -2 18 -5z m110 -39 c168 -110 281
-341 342 -698 14 -85 14 -101 2 -113 -12 -12 -15 -1 -21 81 -7 106 -41 252
-81 347 -14 35 -31 78 -37 94 -16 42 -97 161 -149 218 -24 26 -69 61 -99 78
-42 23 -48 29 -25 24 17 -3 47 -17 68 -31z m-30 -124 c20 -6 54 -28 76 -48 39
-38 97 -129 88 -138 -3 -3 -22 3 -44 14 -60 31 -142 52 -200 52 -34 0 -52 4
-48 10 13 22 140 4 222 -31 l43 -18 -14 27 c-19 35 -72 85 -116 108 -26 14
-58 18 -125 19 l-89 0 49 12 c52 12 94 10 158 -7z m-150 -117 c-7 -2 -19 -2
-25 0 -7 3 -2 5 12 5 14 0 19 -2 13 -5z m317 -128 c0 -7 -5 -17 -11 -20 -7 -5
-4 -14 7 -26 9 -11 15 -21 13 -24 -3 -2 -41 10 -85 27 -61 24 -102 32 -179 37
l-100 6 61 8 c61 8 168 -4 219 -23 33 -13 32 -13 32 8 0 9 -9 28 -21 41 l-21
23 43 -21 c23 -12 42 -28 42 -36z m-57 -162 c17 -61 20 -60 -78 -32 l-70 20
67 -5 67 -5 -9 25 c-13 32 -13 71 -1 59 5 -6 15 -34 24 -62z m30 -122 c18 -18
-21 -24 -56 -8 -17 8 -39 17 -47 21 -8 3 9 4 39 1 30 -2 59 -9 64 -14z m-92
-71 c10 -6 19 -19 19 -29 0 -11 11 -43 25 -73 14 -29 25 -64 25 -78 l-1 -25
-20 28 c-17 22 -28 27 -65 27 -24 0 -44 5 -44 10 0 6 18 10 39 10 22 0 43 5
46 10 13 21 -17 40 -64 41 l-46 0 43 19 c69 31 56 50 -35 51 -61 1 -70 3 -43
9 53 11 99 11 121 0z m99 -226 c12 -4 12 -7 1 -13 -10 -7 -5 -36 28 -143 23
-74 41 -141 41 -150 0 -11 -18 -22 -52 -34 -29 -9 -88 -33 -131 -54 l-77 -37
27 30 c32 33 79 59 141 77 40 12 57 30 30 30 -8 1 -6 6 5 14 11 8 14 17 8 20
-5 4 -8 15 -6 26 3 13 -2 20 -12 20 -13 0 -13 3 -3 15 9 11 9 15 1 15 -7 0
-10 10 -7 24 3 19 0 26 -16 28 -22 3 -34 37 -15 40 7 0 -8 4 -33 8 -44 7 -44
7 -9 8 40 2 59 26 32 40 -12 7 -13 11 -2 17 9 6 1 12 -27 21 l-39 13 50 -5
c28 -3 57 -8 65 -10z m113 -286 c31 -87 42 -138 30 -138 -5 0 -19 39 -32 88
-33 122 -33 122 -28 122 3 0 16 -33 30 -72z m195 -113 c0 -35 -2 -31 -13 25
-17 82 -17 107 0 55 8 -22 13 -58 13 -80z m-148 -132 c0 -5 -12 -16 -26 -27
l-26 -19 17 27 c16 25 35 35 35 19z m242 -60 c-64 -74 -140 -148 -146 -142 -5
5 179 199 189 199 4 0 -16 -26 -43 -57z m-202 35 c0 -7 -12 -22 -27 -32 l-26
-19 19 31 c19 33 34 42 34 20z m50 -38 c0 -12 -72 -61 -79 -54 -7 7 55 64 69
64 6 0 10 -4 10 -10z m4 -44 c-3 -9 -13 -16 -22 -16 -13 0 -12 3 3 20 20 23
29 21 19 -4z m40 5 c3 -4 -6 -19 -19 -31 -28 -26 -31 -23 -13 15 12 26 23 32
32 16z m-125 -114 c8 -11 -6 -38 -65 -123 -102 -145 -314 -434 -320 -434 -5 0
93 146 255 384 71 104 99 152 91 160 -5 5 -10 14 -10 18 0 13 37 9 49 -5z m24
-50 c-22 -43 -152 -237 -159 -237 -3 0 6 19 21 43 14 23 51 85 83 139 31 53
60 94 64 91 5 -2 1 -19 -9 -36z m-401 -1183 c30 -16 75 -15 127 1 22 8 24 6
19 -20 -6 -27 0 -49 26 -104 9 -19 7 -26 -10 -40 -12 -9 -25 -28 -29 -41 l-8
-24 -17 22 c-12 15 -20 18 -23 10 -3 -10 -7 -10 -19 0 -13 10 -17 10 -20 0 -3
-8 -9 -5 -17 10 -10 19 -15 21 -27 11 -12 -9 -14 -6 -14 19 0 17 -4 33 -9 37
-5 3 -7 20 -4 38 4 24 0 37 -15 51 -20 17 -20 46 0 46 5 0 23 -7 40 -16z"/>
<path d="M2596 3502 c-9 -17 -18 -48 -22 -71 -4 -26 -29 -75 -68 -133 -52 -77
-66 -93 -85 -90 -20 2 -22 0 -12 -12 10 -12 7 -20 -16 -44 -31 -33 -95 -49
-111 -29 -7 8 3 65 29 167 39 155 41 180 16 180 -30 0 -51 -46 -102 -215 -30
-97 -59 -182 -65 -190 -17 -20 -8 -59 14 -63 10 -2 37 10 60 26 55 40 116 64
143 57 19 -4 29 4 58 44 19 27 45 51 58 54 12 3 32 8 43 12 20 6 22 2 29 -57
4 -34 14 -76 22 -91 26 -51 38 -27 44 88 7 114 6 112 65 153 17 11 16 12 -13
9 -18 -2 -33 -2 -33 0 0 2 7 43 15 93 12 66 13 95 5 110 -6 11 -15 20 -20 20
-4 0 -15 3 -24 6 -10 4 -20 -4 -30 -24z m-40 -247 c-6 -18 -43 -37 -50 -27 -3
5 7 28 22 53 27 44 27 44 30 16 2 -16 1 -35 -2 -42z"/>
<path d="M3030 3501 c0 -5 7 -14 15 -21 42 -35 -20 -266 -94 -350 l-22 -25 6
49 c4 28 18 80 31 117 26 72 24 94 -8 103 -30 7 -36 2 -64 -62 -32 -73 -86
-162 -97 -162 -9 0 -5 96 9 208 5 42 4 52 -8 52 -10 0 -23 -33 -42 -107 -58
-221 -58 -233 -6 -233 36 0 77 19 104 49 26 28 36 26 36 -7 0 -35 16 -52 51
-52 29 0 69 47 119 137 13 24 25 41 28 39 2 -2 -2 -14 -8 -26 -9 -17 -9 -28 0
-44 6 -12 12 -31 14 -41 3 -21 69 -65 98 -65 9 0 31 12 48 26 30 26 31 26 37
6 5 -22 29 -36 44 -26 5 3 9 24 9 47 0 51 7 63 43 76 28 11 37 38 15 46 -7 2
-43 5 -80 7 -58 3 -68 2 -68 -13 0 -9 7 -22 15 -29 22 -19 18 -35 -15 -63 -56
-48 -100 -43 -100 10 0 35 58 181 92 230 55 81 103 65 86 -29 -7 -39 -6 -53 4
-59 32 -21 62 1 77 58 14 49 -6 93 -52 118 -36 19 -38 19 -71 1 -43 -23 -126
-102 -126 -121 0 -9 -43 -76 -46 -72 -3 2 2 17 11 33 28 55 17 142 -25 184
-20 20 -60 28 -60 11z"/>
<path d="M4244 3500 c-49 -20 -124 -139 -155 -248 -32 -114 -23 -172 32 -191
78 -27 107 -9 149 94 27 66 22 88 -17 79 -29 -7 -45 -23 -37 -36 8 -13 -25
-80 -38 -75 -17 5 -16 158 1 208 17 54 69 131 82 123 8 -4 9 -29 4 -77 -7 -70
-1 -86 32 -87 60 -1 56 176 -5 209 -23 12 -20 12 -48 1z"/>
<path d="M4609 3418 c-38 -76 -110 -188 -121 -188 -11 0 -10 5 9 87 13 59 14
75 3 87 -21 26 -73 20 -102 -11 -48 -53 -79 -113 -43 -83 23 19 27 7 17 -51
-12 -66 4 -99 50 -99 42 0 65 15 85 57 22 48 28 26 12 -48 l-13 -59 -72 -30
c-40 -16 -79 -30 -87 -30 -27 0 -38 -24 -21 -48 13 -18 25 -22 74 -22 61 0
131 21 163 48 10 9 23 35 29 60 6 24 19 49 29 55 16 10 16 12 2 22 -14 11 -14
16 0 56 9 24 19 77 22 118 3 40 10 82 15 92 15 26 12 49 -5 49 -8 0 -29 -28
-46 -62z m-119 -352 c0 -23 -65 -68 -92 -64 -43 6 -33 34 17 48 25 7 48 17 51
21 8 14 24 10 24 -5z"/>
<path d="M3532 3440 c-62 -28 -77 -83 -34 -126 17 -18 18 -17 -52 -66 -29 -21
-50 -79 -42 -114 9 -34 41 -64 69 -64 13 0 34 11 46 24 l23 25 -48 3 c-35 2
-50 7 -52 19 -4 24 42 74 109 120 33 22 59 44 59 49 0 6 -22 10 -50 10 -27 0
-50 4 -50 9 0 15 63 35 113 36 61 0 76 17 56 61 -12 25 -20 29 -59 32 -28 1
-61 -5 -88 -18z"/>
<path d="M3990 3442 c-19 -9 -59 -48 -88 -87 -62 -81 -75 -90 -61 -43 16 56
11 55 -66 -22 -79 -78 -87 -95 -99 -197 -7 -53 -7 -53 21 -53 38 1 56 17 77
69 24 63 182 288 194 277 2 -3 -3 -24 -12 -48 -26 -72 -47 -205 -36 -233 14
-38 64 -29 102 19 25 31 24 54 -2 31 -20 -18 -20 -17 -20 11 0 40 23 121 47
169 54 106 30 151 -57 107z"/>
<path d="M3746 3363 c-9 -25 -15 -48 -13 -49 2 -2 25 19 52 46 l49 50 -36 0
c-34 0 -37 -3 -52 -47z"/>
<path d="M3596 3109 c-20 -17 -35 -34 -32 -36 9 -9 97 39 93 50 -7 22 -26 17
-61 -14z"/>
<path d="M4050 2821 l-35 -29 80 -4 c44 -2 82 -2 84 -1 7 5 -41 53 -52 53 -5
0 -4 -6 2 -14 13 -16 -4 -26 -47 -26 l-25 0 23 25 c32 34 13 31 -30 -4z"/>
<path d="M4236 2835 c4 -9 0 -15 -10 -15 -9 0 -16 -4 -16 -10 0 -5 16 -10 35
-10 41 0 42 3 15 30 -24 24 -31 25 -24 5z"/>
<path d="M4295 2839 c-18 -7 -19 -8 -1 -8 17 -1 18 -2 1 -27 -13 -20 -14 -28
-5 -34 7 -5 11 -19 8 -34 -3 -14 -2 -26 1 -27 56 -5 81 -4 81 3 0 4 -17 9 -37
10 l-38 1 45 7 c25 4 36 8 25 9 -17 1 -18 3 -5 11 13 9 13 10 0 10 -13 0 -13
1 0 10 13 9 13 10 0 11 -10 0 -8 3 5 9 18 8 18 9 -5 10 -14 1 -34 1 -45 0 -17
-2 -17 0 -5 14 7 10 19 15 27 12 7 -3 23 -1 35 4 14 5 17 9 8 10 -8 1 -28 3
-45 4 -16 2 -39 0 -50 -5z m42 -55 c-3 -3 -12 -4 -19 -1 -8 3 -5 6 6 6 11 1
17 -2 13 -5z m0 -20 c-3 -3 -12 -4 -19 -1 -8 3 -5 6 6 6 11 1 17 -2 13 -5z m0
-20 c-3 -3 -12 -4 -19 -1 -8 3 -5 6 6 6 11 1 17 -2 13 -5z"/>
<path d="M4500 2820 c0 -28 -2 -30 -40 -30 -22 0 -40 -4 -40 -10 0 -5 18 -10
40 -10 40 0 40 0 40 -39 0 -39 -1 -40 -37 -44 -21 -2 0 -4 47 -4 47 0 68 2 48
4 -37 4 -38 5 -38 44 0 39 0 39 40 39 22 0 40 5 40 10 0 6 -18 10 -40 10 -38
0 -40 2 -40 30 0 17 -4 30 -10 30 -5 0 -10 -13 -10 -30z"/>
<path d="M4233 2783 c9 -2 23 -2 30 0 6 3 -1 5 -18 5 -16 0 -22 -2 -12 -5z"/>
<path d="M4061 2768 c-1 -12 -10 -18 -28 -19 -24 -2 -25 -2 -5 -6 12 -2 22 -9
22 -16 0 -6 -10 -22 -22 -35 -15 -16 -18 -23 -8 -20 8 2 24 19 35 36 15 24 26
31 45 29 21 -2 26 -8 31 -42 l5 -40 5 40 c3 32 9 41 29 46 l25 7 -27 1 c-16 1
-28 8 -31 19 -4 16 -5 16 -6 0 -1 -13 -10 -18 -30 -18 -20 0 -31 6 -34 18 -4
16 -5 16 -6 0z"/>
<path d="M4233 2753 c9 -2 23 -2 30 0 6 3 -1 5 -18 5 -16 0 -22 -2 -12 -5z"/>
<path d="M4220 2706 c0 -30 2 -33 25 -28 20 3 25 10 25 33 0 24 -4 29 -25 29
-22 0 -25 -4 -25 -34z m40 -1 c0 -8 -7 -15 -15 -15 -8 0 -15 7 -15 15 0 8 7
15 15 15 8 0 15 -7 15 -15z"/>
<path d="M4320 2691 c0 -5 -10 -11 -22 -13 -13 -3 6 -4 42 -4 36 0 55 1 43 4
-13 2 -23 8 -23 13 0 5 -9 9 -20 9 -11 0 -20 -4 -20 -9z"/>
<path d="M581 410 c14 -31 19 -36 19 -24 0 6 -7 19 -16 30 -14 18 -14 18 -3
-6z"/>
</g>
</svg>
